<svg width="276" height="170" viewBox="0 0 276 170" fill="none" xmlns="http://www.w3.org/2000/svg">
<path d="M275.943 0.15033H0.185528V169.98H275.943V0.15033Z" fill="#E6E6E6"/>
<path d="M268.057 21.4512H8.07075V159.933H268.057V21.4512Z" fill="white"/>
<path d="M275.823 0H0.0660686V11.2656H275.823V0Z" fill="#638595"/>
<path d="M8.77357 7.84755C9.97276 7.84755 10.9449 6.91273 10.9449 5.75956C10.9449 4.6064 9.97276 3.67157 8.77357 3.67157C7.57439 3.67157 6.60225 4.6064 6.60225 5.75956C6.60225 6.91273 7.57439 7.84755 8.77357 7.84755Z" fill="white"/>
<path d="M17.0153 7.84755C18.2145 7.84755 19.1866 6.91273 19.1866 5.75956C19.1866 4.6064 18.2145 3.67157 17.0153 3.67157C15.8161 3.67157 14.844 4.6064 14.844 5.75956C14.844 6.91273 15.8161 7.84755 17.0153 7.84755Z" fill="white"/>
<path d="M25.2571 7.84755C26.4563 7.84755 27.4284 6.91273 27.4284 5.75956C27.4284 4.6064 26.4563 3.67157 25.2571 3.67157C24.0579 3.67157 23.0858 4.6064 23.0858 5.75956C23.0858 6.91273 24.0579 7.84755 25.2571 7.84755Z" fill="white"/>
<path d="M194.493 34.4218H109.85C109.669 34.3989 109.503 34.3136 109.383 34.1818C109.263 34.05 109.197 33.8808 109.197 33.7055C109.197 33.5303 109.263 33.361 109.383 33.2292C109.503 33.0974 109.669 33.0122 109.85 32.9893H194.493C194.674 33.0122 194.839 33.0974 194.96 33.2292C195.08 33.361 195.146 33.5303 195.146 33.7055C195.146 33.8808 195.08 34.05 194.96 34.1818C194.839 34.3136 194.674 34.3989 194.493 34.4218Z" fill="#CCCCCC"/>
<path d="M135.843 42.3006H82.0272C81.8465 42.2777 81.6806 42.1924 81.5604 42.0606C81.4403 41.9288 81.3741 41.7595 81.3741 41.5843C81.3741 41.409 81.4403 41.2398 81.5604 41.108C81.6806 40.9762 81.8465 40.8909 82.0272 40.868H135.843C136.024 40.8909 136.19 40.9762 136.31 41.108C136.43 41.2398 136.497 41.409 136.497 41.5843C136.497 41.7595 136.43 41.9288 136.31 42.0606C136.19 42.1924 136.024 42.2777 135.843 42.3006Z" fill="#CCCCCC"/>
<path d="M194.493 42.4438H140.677C140.496 42.4209 140.33 42.3356 140.21 42.2038C140.09 42.0721 140.023 41.9028 140.023 41.7275C140.023 41.5523 140.09 41.383 140.21 41.2512C140.33 41.1195 140.496 41.0342 140.677 41.0113H194.493C194.674 41.0342 194.839 41.1195 194.96 41.2512C195.08 41.383 195.146 41.5523 195.146 41.7275C195.146 41.9028 195.08 42.0721 194.96 42.2038C194.839 42.3356 194.674 42.4209 194.493 42.4438H194.493Z" fill="#CCCCCC"/>
<path d="M135.974 50.1793H82.1578C81.9771 50.1564 81.8112 50.0711 81.6911 49.9393C81.5709 49.8075 81.5047 49.6383 81.5047 49.463C81.5047 49.2878 81.5709 49.1185 81.6911 48.9867C81.8112 48.8549 81.9771 48.7697 82.1578 48.7468H135.974C136.155 48.7697 136.321 48.8549 136.441 48.9867C136.561 49.1185 136.627 49.2878 136.627 49.463C136.627 49.6383 136.561 49.8075 136.441 49.9393C136.321 50.0711 136.155 50.1564 135.974 50.1793Z" fill="#CCCCCC"/>
<path d="M136.105 58.058H82.2884C82.1077 58.0351 81.9418 57.9498 81.8217 57.818C81.7015 57.6863 81.6353 57.517 81.6353 57.3417C81.6353 57.1665 81.7015 56.9972 81.8217 56.8654C81.9418 56.7337 82.1077 56.6484 82.2884 56.6255H136.105C136.285 56.6484 136.451 56.7337 136.571 56.8654C136.692 56.9972 136.758 57.1665 136.758 57.3417C136.758 57.517 136.692 57.6863 136.571 57.818C136.451 57.9498 136.285 58.0351 136.105 58.058Z" fill="#CCCCCC"/>
<path d="M160.531 50.1793H145.118C144.937 50.1564 144.771 50.0711 144.651 49.9393C144.531 49.8075 144.465 49.6383 144.465 49.463C144.465 49.2878 144.531 49.1185 144.651 48.9867C144.771 48.8549 144.937 48.7697 145.118 48.7468H160.531C160.712 48.7697 160.878 48.8549 160.998 48.9867C161.118 49.1185 161.184 49.2878 161.184 49.463C161.184 49.6383 161.118 49.8075 160.998 49.9393C160.878 50.0711 160.712 50.1564 160.531 50.1793Z" fill="#CCCCCC"/>
<path d="M160.531 57.9147H145.118C144.937 57.8918 144.771 57.8066 144.651 57.6748C144.531 57.543 144.465 57.3737 144.465 57.1985C144.465 57.0232 144.531 56.854 144.651 56.7222C144.771 56.5904 144.937 56.5051 145.118 56.4822H160.531C160.712 56.5051 160.878 56.5904 160.998 56.7222C161.118 56.854 161.184 57.0232 161.184 57.1985C161.184 57.3737 161.118 57.543 160.998 57.6748C160.878 57.8066 160.712 57.8918 160.531 57.9147Z" fill="#CCCCCC"/>
<path d="M186.394 57.9147H170.981C170.8 57.8918 170.634 57.8066 170.514 57.6748C170.394 57.543 170.328 57.3737 170.328 57.1985C170.328 57.0232 170.394 56.854 170.514 56.7222C170.634 56.5904 170.8 56.5051 170.981 56.4822H186.394C186.575 56.5051 186.741 56.5904 186.861 56.7222C186.981 56.854 187.047 57.0232 187.047 57.1985C187.047 57.3737 186.981 57.543 186.861 57.6748C186.741 57.8066 186.575 57.8918 186.394 57.9147Z" fill="#CCCCCC"/>
<path d="M97.0487 34.4218H81.6353C81.4546 34.3989 81.2887 34.3136 81.1686 34.1818C81.0484 34.05 80.9822 33.8808 80.9822 33.7055C80.9822 33.5303 81.0484 33.361 81.1686 33.2292C81.2887 33.0974 81.4546 33.0122 81.6353 32.9893H97.0487C97.2294 33.0122 97.3953 33.0974 97.5154 33.2292C97.6356 33.361 97.7018 33.5303 97.7018 33.7055C97.7018 33.8808 97.6356 34.05 97.5154 34.1818C97.3953 34.3136 97.2294 34.3989 97.0487 34.4218Z" fill="#CCCCCC"/>
<path d="M135.648 124.758H81.8312C81.6505 124.736 81.4847 124.65 81.3645 124.519C81.2444 124.387 81.1781 124.217 81.1781 124.042C81.1781 123.867 81.2444 123.698 81.3645 123.566C81.4847 123.434 81.6505 123.349 81.8312 123.326H135.648C135.828 123.349 135.994 123.434 136.114 123.566C136.234 123.698 136.301 123.867 136.301 124.042C136.301 124.217 136.234 124.387 136.114 124.519C135.994 124.65 135.828 124.736 135.648 124.758H135.648Z" fill="#CCCCCC"/>
<path d="M135.386 140.516H81.57C81.3893 140.493 81.2234 140.408 81.1033 140.276C80.9831 140.144 80.9169 139.975 80.9169 139.8C80.9169 139.624 80.9831 139.455 81.1033 139.323C81.2234 139.192 81.3893 139.106 81.57 139.083H135.386C135.567 139.106 135.733 139.192 135.853 139.323C135.973 139.455 136.039 139.624 136.039 139.8C136.039 139.975 135.973 140.144 135.853 140.276C135.733 140.408 135.567 140.493 135.386 140.516H135.386Z" fill="#CCCCCC"/>
<path d="M135.517 148.395H81.7006C81.5199 148.372 81.354 148.287 81.2339 148.155C81.1137 148.023 81.0475 147.854 81.0475 147.678C81.0475 147.503 81.1137 147.334 81.2339 147.202C81.354 147.07 81.5199 146.985 81.7006 146.962H135.517C135.698 146.985 135.864 147.07 135.984 147.202C136.104 147.334 136.17 147.503 136.17 147.678C136.17 147.854 136.104 148.023 135.984 148.155C135.864 148.287 135.698 148.372 135.517 148.395H135.517Z" fill="#CCCCCC"/>
<path d="M158.506 140.659H143.093C142.912 140.636 142.746 140.551 142.626 140.419C142.506 140.287 142.44 140.118 142.44 139.943C142.44 139.768 142.506 139.598 142.626 139.467C142.746 139.335 142.912 139.25 143.093 139.227H158.506C158.687 139.25 158.853 139.335 158.973 139.467C159.093 139.598 159.16 139.768 159.16 139.943C159.16 140.118 159.093 140.287 158.973 140.419C158.853 140.551 158.687 140.636 158.506 140.659Z" fill="#CCCCCC"/>
<path d="M158.506 148.395H143.093C142.912 148.372 142.746 148.287 142.626 148.155C142.506 148.023 142.44 147.854 142.44 147.678C142.44 147.503 142.506 147.334 142.626 147.202C142.746 147.07 142.912 146.985 143.093 146.962H158.506C158.687 146.985 158.853 147.07 158.973 147.202C159.093 147.334 159.16 147.503 159.16 147.678C159.16 147.854 159.093 148.023 158.973 148.155C158.853 148.287 158.687 148.372 158.506 148.395Z" fill="#CCCCCC"/>
<path d="M184.37 140.659H168.956C168.776 140.636 168.61 140.551 168.49 140.419C168.369 140.287 168.303 140.118 168.303 139.943C168.303 139.768 168.369 139.598 168.49 139.467C168.61 139.335 168.776 139.25 168.956 139.227H184.37C184.55 139.25 184.716 139.335 184.836 139.467C184.957 139.598 185.023 139.768 185.023 139.943C185.023 140.118 184.957 140.287 184.836 140.419C184.716 140.551 184.55 140.636 184.37 140.659Z" fill="#CCCCCC"/>
<path d="M194.558 132.637H109.915C109.734 132.614 109.568 132.529 109.448 132.397C109.328 132.265 109.262 132.096 109.262 131.921C109.262 131.746 109.328 131.576 109.448 131.445C109.568 131.313 109.734 131.228 109.915 131.205H194.558C194.739 131.228 194.905 131.313 195.025 131.445C195.145 131.576 195.211 131.746 195.211 131.921C195.211 132.096 195.145 132.265 195.025 132.397C194.905 132.529 194.739 132.614 194.558 132.637Z" fill="#CCCCCC"/>
<path d="M97.114 132.637H81.7006C81.5199 132.614 81.3541 132.529 81.2339 132.397C81.1138 132.265 81.0475 132.096 81.0475 131.921C81.0475 131.746 81.1138 131.576 81.2339 131.445C81.3541 131.313 81.5199 131.228 81.7006 131.205H97.114C97.2947 131.228 97.4606 131.313 97.5807 131.445C97.7009 131.576 97.7671 131.746 97.7671 131.921C97.7671 132.096 97.7009 132.265 97.5807 132.397C97.4606 132.529 97.2947 132.614 97.114 132.637Z" fill="#CCCCCC"/>
<path d="M122.651 70.7847L101.751 90.6313L122.651 110.477L127.353 105.956L111.548 90.7566L127.484 75.4323L122.651 70.7847Z" fill="#E6E6E6"/>
<path d="M153.478 70.7847L174.377 90.6313L153.478 110.477L148.775 105.956L164.58 90.7566L148.644 75.4323L153.478 70.7847Z" fill="#E6E6E6"/>
<path d="M122.651 70.7847L101.751 90.6313L122.651 110.477L127.353 105.956L111.548 90.7566L127.484 75.4323L122.651 70.7847Z" fill="#638595"/>
<path d="M153.478 70.7847L174.377 90.6313L153.478 110.477L148.775 105.956L164.58 90.7566L148.644 75.4323L153.478 70.7847Z" fill="#638595"/>
</svg>
