<svg width="325" height="226" viewBox="0 0 325 226" fill="none" xmlns="http://www.w3.org/2000/svg">
<g clip-path="url(#clip0)">
<path d="M317.171 91.8146C297.037 39.3999 227.465 1.56376 145.803 0.0461875C102.63 -0.756108 57.2011 8.72288 24.1252 41.8933C-35.0016 101.189 27.7586 142.164 71.5134 161.635C92.6523 171.061 111.7 182.394 128.104 195.307C157.659 218.525 214.515 247.377 282.23 202.171C331.309 169.405 330.583 126.728 317.171 91.8146Z" fill="#FBFBFB"/>
<path opacity="0.1" d="M222.576 140.648L257.448 105.63L222.576 70.6123L233.208 59.9391L278.712 105.63L233.208 151.322L222.576 140.648Z" fill="black"/>
<path opacity="0.1" d="M122.121 108.087H136.247V93.3478H122.121V108.087ZM193.03 93.3478H178.905V108.087H193.03V93.3478ZM150.513 108.087H164.638V93.3478H150.513V108.087Z" fill="black"/>
<path opacity="0.1" d="M102.424 139.666L67.5162 104.648L102.389 69.6297L91.7569 58.9565L46.2879 104.648L91.7924 150.339L102.424 139.666Z" fill="black"/>
<path d="M222.576 139.781L257.448 105.139L222.576 70.4975L233.208 59.9391L278.712 105.139L233.208 150.339L222.576 139.781Z" fill="#315363"/>
<path d="M122.121 108.087H136.247V93.3478H122.121V108.087ZM193.03 93.3478H178.905V108.087H193.03V93.3478ZM150.513 108.087H164.638V93.3478H150.513V108.087Z" fill="#315363"/>
<path d="M102.424 139.666L67.5162 104.648L102.389 69.6297L91.7569 58.9565L46.2879 104.648L91.7924 150.339L102.424 139.666Z" fill="#315363"/>
</g>
<defs>
<clipPath id="clip0">
<rect width="325" height="226" fill="white"/>
</clipPath>
</defs>
</svg>
