<svg width="277" height="200" viewBox="0 0 277 200" fill="none" xmlns="http://www.w3.org/2000/svg">
<g clip-path="url(#clip0)">
<path d="M241.818 173.997C239.567 174.192 237.303 174.162 235.059 173.906C210.384 171.16 176.783 171.941 149.393 189.025C111.512 212.648 52.1458 192.425 25.9582 181.423C5.94902 173.02 -4.43866 152.438 1.80079 133.119C1.88863 132.846 1.97892 132.574 2.07408 132.301C6.00027 120.82 13.7502 111.835 23.3472 107.072C31.712 102.921 43.9249 94.2522 49.3591 77.5958C51.6041 70.7181 54.6835 64.248 58.6829 58.6083C69.3927 43.5043 91.8127 21.0116 130.372 21.1516C137.132 21.1846 143.842 22.3279 150.237 24.5364C164.324 29.368 177.047 39.1909 186.749 52.8089C192.939 61.4945 202.217 69.5685 215.499 70.2268C233.931 71.1455 251.522 79.7844 264.719 95.1586C265.099 95.6008 265.475 96.0454 265.851 96.4949C289.347 124.672 273.027 171.251 241.818 173.997Z" fill="#C9EBF0"/>
<g opacity="0.7">
<path opacity="0.7" d="M67.7042 171.234C69.564 171.234 71.0716 169.716 71.0716 167.844C71.0716 165.972 69.564 164.454 67.7042 164.454C65.8444 164.454 64.3368 165.972 64.3368 167.844C64.3368 169.716 65.8444 171.234 67.7042 171.234Z" fill="url(#paint0_linear)"/>
</g>
<path opacity="0.2" d="M67.7041 171.082C69.4803 171.082 70.9202 169.632 70.9202 167.844C70.9202 166.056 69.4803 164.607 67.7041 164.607C65.9279 164.607 64.488 166.056 64.488 167.844C64.488 169.632 65.9279 171.082 67.7041 171.082Z" fill="black"/>
<path d="M49.5617 102.98C50.249 102.98 50.8062 102.419 50.8062 101.727C50.8062 101.035 50.249 100.474 49.5617 100.474C48.8744 100.474 48.3173 101.035 48.3173 101.727C48.3173 102.419 48.8744 102.98 49.5617 102.98Z" fill="white"/>
<path d="M138.383 175.687C139.07 175.687 139.627 175.126 139.627 174.434C139.627 173.743 139.07 173.182 138.383 173.182C137.696 173.182 137.138 173.743 137.138 174.434C137.138 175.126 137.696 175.687 138.383 175.687Z" fill="white"/>
<path d="M85.9198 181.521C86.3039 181.521 86.6152 181.208 86.6152 180.821C86.6152 180.434 86.3039 180.121 85.9198 180.121C85.5357 180.121 85.2244 180.434 85.2244 180.821C85.2244 181.208 85.5357 181.521 85.9198 181.521Z" fill="white"/>
<path d="M239.893 147.623C240.277 147.623 240.588 147.31 240.588 146.923C240.588 146.537 240.277 146.223 239.893 146.223C239.509 146.223 239.197 146.537 239.197 146.923C239.197 147.31 239.509 147.623 239.893 147.623Z" fill="white"/>
<path d="M200.118 84.7412C200.502 84.7412 200.814 84.4278 200.814 84.0412C200.814 83.6546 200.502 83.3411 200.118 83.3411C199.734 83.3411 199.423 83.6546 199.423 84.0412C199.423 84.4278 199.734 84.7412 200.118 84.7412Z" fill="white"/>
<path d="M256.486 115.445C256.87 115.445 257.181 115.132 257.181 114.745C257.181 114.359 256.87 114.045 256.486 114.045C256.102 114.045 255.79 114.359 255.79 114.745C255.79 115.132 256.102 115.445 256.486 115.445Z" fill="white"/>
<path d="M71.523 61.9587C72.2103 61.9587 72.7674 61.3978 72.7674 60.706C72.7674 60.0141 72.2103 59.4532 71.523 59.4532C70.8357 59.4532 70.2785 60.0141 70.2785 60.706C70.2785 61.3978 70.8357 61.9587 71.523 61.9587Z" fill="white"/>
<path d="M37.3195 145.467H36.2117V144.352H35.7603V145.467H34.6525V145.921H35.7603V147.034H36.2117V145.921H37.3195V145.467Z" fill="white"/>
<path d="M65.1372 144.976H64.0293V143.86H63.5779V144.976H62.4701V145.43H63.5779V146.543H64.0293V145.43H65.1372V144.976Z" fill="white"/>
<path d="M104.911 167.574H103.804V166.459H103.352V167.574H102.244V168.028H103.352V169.141H103.804V168.028H104.911V167.574Z" fill="white"/>
<path d="M160.31 32.1068H159.805V31.5983H159.6V32.1068H159.095V32.3131H159.6V32.8216H159.805V32.3131H160.31V32.1068Z" fill="white"/>
<path d="M232.294 78.7773H231.789V78.2688H231.584V78.7773H231.079V78.9836H231.584V79.4921H231.789V78.9836H232.294V78.7773Z" fill="white"/>
<path d="M189.836 109.236H189.331V108.727H189.126V109.236H188.62V109.442H189.126V109.951H189.331V109.442H189.836V109.236Z" fill="white"/>
<path d="M17.0736 128.395H16.5685V127.887H16.3636V128.395H15.8585V128.602H16.3636V129.11H16.5685V128.602H17.0736V128.395Z" fill="white"/>
<path d="M37.8149 170.153H37.3097V169.645H37.1048V170.153H36.5997V170.359H37.1048V170.868H37.3097V170.359H37.8149V170.153Z" fill="white"/>
<path d="M102.967 38.2477H102.462V37.7392H102.257V38.2477H101.751V38.454H102.257V38.9625H102.462V38.454H102.967V38.2477Z" fill="white"/>
<path d="M72.2209 111.692H71.7158V111.184H71.5108V111.692H71.0057V111.899H71.5108V112.407H71.7158V111.899H72.2209V111.692Z" fill="white"/>
<path d="M78.8092 90.5677H78.3041V90.0592H78.0992V90.5677H77.5941V90.774H78.0992V91.2824H78.3041V90.774H78.8092V90.5677Z" fill="white"/>
<g opacity="0.7">
<path opacity="0.7" d="M182.559 139.316C184.112 139.316 185.37 138.049 185.37 136.486C185.37 134.924 184.112 133.657 182.559 133.657C181.007 133.657 179.748 134.924 179.748 136.486C179.748 138.049 181.007 139.316 182.559 139.316Z" fill="url(#paint1_linear)"/>
</g>
<path opacity="0.2" d="M182.559 139.107C183.997 139.107 185.163 137.934 185.163 136.486C185.163 135.039 183.997 133.865 182.559 133.865C181.121 133.865 179.956 135.039 179.956 136.486C179.956 137.934 181.121 139.107 182.559 139.107Z" fill="black"/>
<path opacity="0.2" d="M189.57 157.866C191.178 157.866 192.481 156.554 192.481 154.936C192.481 153.318 191.178 152.006 189.57 152.006C187.962 152.006 186.659 153.318 186.659 154.936C186.659 156.554 187.962 157.866 189.57 157.866Z" fill="black"/>
<g opacity="0.7">
<path opacity="0.7" d="M163.482 75.4169C163.502 69.2606 162.037 63.1915 159.212 57.7313C157.872 55.1669 156.65 53.5752 155.708 52.5951C155.348 52.2125 154.878 51.9531 154.364 51.8535C153.85 51.754 153.318 51.8192 152.843 52.04C152.463 52.1756 152.12 52.3985 151.84 52.6909C150.569 54.0173 149.42 55.7711 148.424 57.6355C145.454 63.2259 143.913 69.4728 143.942 75.8124V79.6148H141.518V35.3983C141.518 26.133 139.459 16.9929 135.418 8.88701C133.505 5.0453 131.758 2.65774 130.418 1.19131C130.093 0.81811 129.692 0.519092 129.243 0.314239C128.794 0.109387 128.307 0.00341797 127.813 0.00341797C127.32 0.00341797 126.833 0.109387 126.384 0.314239C125.934 0.519092 125.534 0.81811 125.209 1.19131C123.393 3.17848 121.753 5.80677 120.328 8.59962C116.085 16.8824 113.93 26.2853 113.93 35.8208V79.5976H111.837V75.611C111.863 69.2755 110.323 63.0329 107.354 57.4464C106.351 55.582 105.202 53.8282 103.938 52.5018C103.571 52.1092 103.088 51.8455 102.561 51.7491C102.034 51.6527 101.491 51.7288 101.01 51.9663L101.098 52.0129C100.791 52.1502 100.514 52.3453 100.28 52.5877C99.3406 53.5703 98.1181 55.1595 96.7784 57.7239C93.9535 63.1841 92.4881 69.2533 92.5082 75.4096V141.485H99.9848L99.16 146.916V163.16H105.275V146.916L104.458 141.483H111.827V81.3023H113.92V141.222H119.891L119.035 146.916V163.16H125.15V146.916L124.293 141.215H132.346L131.485 146.916V163.16H137.6V146.916L136.743 141.215H141.511V81.3097H143.934V141.581H145.898V141.49H152.394L151.579 146.916V163.16H157.694V146.916L156.877 141.483H163.482V75.4169Z" fill="url(#paint2_linear)"/>
</g>
<path d="M106.488 143.757H100.697L101.732 136.681H105.453L106.488 143.757Z" fill="#535461"/>
<g opacity="0.1">
<path opacity="0.1" d="M101.444 139.491H105.741L105.453 137.513H101.732L101.444 139.491Z" fill="black"/>
</g>
<path d="M156.108 143.757H150.32L151.352 136.681H155.076L156.108 143.757Z" fill="#535461"/>
<g opacity="0.1">
<path opacity="0.1" d="M151.064 139.491H155.364L155.076 137.513H151.352L151.064 139.491Z" fill="black"/>
</g>
<path d="M125.301 143.757H119.513L120.545 136.681H124.269L125.301 143.757Z" fill="#535461"/>
<g opacity="0.1">
<path opacity="0.1" d="M120.258 139.491H124.557L124.269 137.513H120.545L120.258 139.491Z" fill="black"/>
</g>
<path d="M137.087 143.757H131.299L132.331 136.681H136.052L137.087 143.757Z" fill="#535461"/>
<g opacity="0.1">
<path opacity="0.1" d="M132.043 139.491H136.343L136.053 137.513H132.331L132.043 139.491Z" fill="black"/>
</g>
<path d="M147.838 78.1976H106.488V79.863H147.838V78.1976Z" fill="#535461"/>
<path d="M154.229 51.8951C154.011 51.6522 153.744 51.458 153.446 51.3251C153.149 51.1923 152.827 51.1236 152.501 51.1236C152.176 51.1236 151.854 51.1923 151.556 51.3251C151.259 51.458 150.992 51.6522 150.774 51.8951C149.571 53.1872 148.483 54.8943 147.533 56.7095C144.718 62.1721 143.262 68.2411 143.29 74.3952V138.466H161.591V74.125C161.614 68.1412 160.228 62.2371 157.548 56.8962C156.276 54.4006 155.12 52.8384 154.229 51.8951Z" fill="#638595"/>
<path d="M101.749 51.8951C101.967 51.6522 102.234 51.458 102.532 51.3251C102.829 51.1923 103.151 51.1236 103.477 51.1236C103.802 51.1236 104.124 51.1923 104.422 51.3251C104.719 51.458 104.986 51.6522 105.204 51.8951C106.41 53.1872 107.496 54.8943 108.447 56.7095C111.262 62.1725 112.718 68.2413 112.691 74.3952V138.466H94.3896V74.125C94.3667 68.1412 95.7523 62.2371 98.4329 56.8962C99.7017 54.4006 100.858 52.8384 101.749 51.8951Z" fill="#638595"/>
<path d="M94.4945 75.4907L98.838 75.5128V80.902H94.4945V75.4907Z" fill="#535461"/>
<path d="M108.347 75.4907L112.691 75.5128V80.902H108.347V75.4907Z" fill="#535461"/>
<path d="M143.29 75.4907L147.631 75.5128V80.902H143.29V75.4907Z" fill="#535461"/>
<path d="M157.143 75.4907L161.484 75.5128V80.902H157.143V75.4907Z" fill="#535461"/>
<g opacity="0.1">
<path opacity="0.1" d="M108.447 56.626C107.496 54.8108 106.41 53.1036 105.204 51.8116C104.864 51.4317 104.409 51.1747 103.91 51.0802C103.41 50.9857 102.894 51.0588 102.44 51.2884C102.701 51.4198 102.937 51.5969 103.137 51.8116C104.34 53.1036 105.429 54.8108 106.378 56.626C109.194 62.0885 110.65 68.1576 110.621 74.3117V138.378H112.691V74.3141C112.718 68.1593 111.262 62.0897 108.447 56.626Z" fill="black"/>
</g>
<g opacity="0.1">
<path opacity="0.1" d="M149.188 56.8028C150.137 54.9876 151.225 53.2805 152.428 51.9884C152.653 51.7437 152.926 51.5481 153.229 51.4136C152.782 51.2166 152.284 51.1661 151.807 51.2692C151.33 51.3724 150.897 51.624 150.569 51.9884C149.364 53.2805 148.275 54.9876 147.326 56.8028C144.512 62.2658 143.055 68.3346 143.083 74.4885V138.565H144.944V74.4934C144.915 68.3377 146.371 62.2669 149.188 56.8028Z" fill="black"/>
</g>
<path d="M103.672 159.576H103.513C102.766 159.576 102.05 159.277 101.522 158.746C100.994 158.214 100.697 157.493 100.697 156.741V143.757H106.488V156.741C106.488 157.493 106.191 158.214 105.663 158.746C105.135 159.277 104.419 159.576 103.672 159.576Z" fill="url(#paint3_linear)"/>
<path d="M122.488 159.576H122.327C121.58 159.575 120.865 159.276 120.337 158.745C119.81 158.213 119.513 157.493 119.513 156.741V143.757H125.301V156.741C125.301 157.493 125.005 158.213 124.477 158.745C123.95 159.276 123.234 159.575 122.488 159.576Z" fill="url(#paint4_linear)"/>
<path d="M134.271 159.576H134.108C133.362 159.574 132.648 159.275 132.121 158.743C131.595 158.212 131.299 157.492 131.299 156.741V143.757H137.087V156.741C137.087 157.493 136.79 158.214 136.262 158.746C135.734 159.277 135.018 159.576 134.271 159.576Z" fill="url(#paint5_linear)"/>
<path d="M153.295 159.576H153.141C152.771 159.577 152.404 159.504 152.062 159.362C151.72 159.22 151.409 159.011 151.147 158.748C150.885 158.484 150.677 158.172 150.535 157.827C150.393 157.483 150.32 157.114 150.32 156.741V143.757H156.108V156.741C156.108 157.493 155.812 158.213 155.284 158.745C154.757 159.276 154.041 159.575 153.295 159.576Z" fill="url(#paint6_linear)"/>
<path d="M130.286 1.65806C129.984 1.29594 129.607 1.00481 129.181 0.805068C128.755 0.60533 128.291 0.501831 127.821 0.501831C127.351 0.501831 126.887 0.60533 126.461 0.805068C126.035 1.00481 125.657 1.29594 125.355 1.65806C123.647 3.59365 122.085 6.1507 120.719 8.87233C116.702 16.9389 114.662 26.0962 114.662 35.3811V138.206H140.772V34.9685C140.772 25.9463 138.82 17.0372 135.003 9.15235C133.21 5.41135 131.558 3.08519 130.286 1.65806Z" fill="#638595"/>
<path d="M131.677 13.08H123.42C121.938 13.08 120.736 14.2897 120.736 15.782V16.6638C120.736 18.1561 121.938 19.3658 123.42 19.3658H131.677C133.16 19.3658 134.362 18.1561 134.362 16.6638V15.782C134.362 14.2897 133.16 13.08 131.677 13.08Z" fill="#535461"/>
<g opacity="0.1">
<path opacity="0.1" d="M140.647 38.8961H114.804V39.9057H140.647V38.8961Z" fill="black"/>
</g>
<path d="M185.705 76.4732C185.027 75.5773 184.179 74.8259 183.211 74.2625C182.098 73.6166 180.853 73.2369 179.571 73.1528C178.289 73.0688 177.005 73.2826 175.818 73.7777C174.632 74.2729 173.574 75.0361 172.727 76.0083C171.881 76.9806 171.267 78.1358 170.935 79.3848C170.602 80.6338 170.559 81.943 170.81 83.2113C171.06 84.4795 171.597 85.6728 172.379 86.6989C173.16 87.725 174.166 88.5564 175.318 89.1289C176.469 89.7013 177.736 89.9995 179.021 90.0003C179.199 90.0003 179.377 90.0002 179.551 89.9806C181.06 89.8847 182.516 89.379 183.763 88.5172C185.01 87.6553 186.002 86.4696 186.633 85.0858C187.265 83.7021 187.512 82.172 187.349 80.6582C187.186 79.1443 186.618 77.7032 185.707 76.4879L185.705 76.4732Z" fill="url(#paint7_linear)"/>
<path opacity="0.2" d="M186.937 81.5529C186.937 83.5795 186.169 85.5299 184.791 87.0074C183.413 88.4848 181.528 89.3785 179.519 89.5065C179.355 89.5065 179.187 89.5237 179.019 89.5237C177.803 89.5244 176.604 89.2436 175.514 88.703C174.423 88.1623 173.471 87.3764 172.731 86.406C171.991 85.4356 171.483 84.3067 171.246 83.1068C171.008 81.9069 171.049 80.6682 171.363 79.4864C171.678 78.3047 172.258 77.2117 173.06 76.292C173.861 75.3724 174.862 74.6507 175.985 74.183C177.108 73.7152 178.323 73.5138 179.536 73.5945C180.749 73.6752 181.927 74.0357 182.979 74.6481C183.896 75.1838 184.697 75.8987 185.336 76.7507C186.377 78.1324 186.939 79.8191 186.937 81.5529Z" fill="black"/>
<path opacity="0.1" d="M177.069 76.4953C176.66 76.6726 176.265 76.882 175.888 77.1216C175.636 77.26 175.42 77.455 175.256 77.6915C175.174 77.8106 175.13 77.9512 175.127 78.0958C175.124 78.2404 175.164 78.3825 175.241 78.5045C175.434 78.7698 175.805 78.8091 176.132 78.8288C176.475 78.8728 176.824 78.8375 177.152 78.7256C177.373 78.6154 177.575 78.4684 177.747 78.2909L178.428 77.6694C178.672 77.4532 178.916 77.156 178.821 76.8514C178.765 76.7427 178.682 76.6497 178.581 76.5811C178.48 76.5125 178.364 76.4703 178.243 76.4584C177.656 76.3433 177.047 76.4509 176.535 76.7606" fill="black"/>
<g opacity="0.1">
<path opacity="0.1" d="M174.226 85.1195C174.457 85.1195 174.643 84.9314 174.643 84.6995C174.643 84.4675 174.457 84.2794 174.226 84.2794C173.996 84.2794 173.809 84.4675 173.809 84.6995C173.809 84.9314 173.996 85.1195 174.226 85.1195Z" fill="black"/>
</g>
<g opacity="0.1">
<path opacity="0.1" d="M182.698 83.5794C183.542 83.5794 184.226 82.8909 184.226 82.0417C184.226 81.1925 183.542 80.504 182.698 80.504C181.855 80.504 181.171 81.1925 181.171 82.0417C181.171 82.8909 181.855 83.5794 182.698 83.5794Z" fill="black"/>
</g>
<g opacity="0.1">
<path opacity="0.1" d="M185.351 76.7508C185.346 77.1528 185.227 77.545 185.008 77.8808C184.788 78.2166 184.477 78.4818 184.112 78.6449C183.747 78.8079 183.343 78.8619 182.948 78.8004C182.554 78.7389 182.185 78.5646 181.886 78.2981C181.587 78.0316 181.37 77.6842 181.261 77.2973C181.153 76.9104 181.157 76.5002 181.274 76.1157C181.39 75.7311 181.614 75.3883 181.918 75.1281C182.223 74.868 182.595 74.7014 182.991 74.6481C183.909 75.1835 184.711 75.8985 185.351 76.7508Z" fill="black"/>
</g>
<g opacity="0.1">
<path opacity="0.1" d="M185.492 86.1413C184.811 87.1173 183.921 87.9266 182.886 88.5091C181.852 89.0917 180.701 89.4325 179.519 89.5065C179.519 89.396 179.504 89.2854 179.504 89.1724C179.505 88.4729 179.698 87.7873 180.063 87.192C180.428 86.5968 180.95 86.1152 181.571 85.8009C182.192 85.4866 182.887 85.3521 183.58 85.4122C184.272 85.4723 184.934 85.7247 185.492 86.1413Z" fill="black"/>
</g>
<path d="M77.538 121.977C77.0655 121.348 76.4732 120.82 75.7957 120.424C75.0181 119.965 74.1458 119.693 73.2465 119.629C72.3473 119.565 71.4454 119.71 70.6113 120.054C69.7771 120.399 69.0331 120.932 68.4373 121.613C67.8415 122.294 67.4099 123.104 67.1762 123.981C66.9424 124.857 66.9128 125.776 67.0897 126.666C67.2666 127.556 67.6452 128.393 68.196 129.111C68.7468 129.829 69.4549 130.41 70.2652 130.808C71.0755 131.206 71.966 131.41 72.8675 131.404C72.992 131.404 73.1115 131.404 73.2384 131.392C74.2898 131.321 75.3026 130.965 76.1701 130.363C77.0375 129.761 77.7275 128.934 78.1672 127.97C78.6069 127.006 78.7801 125.941 78.6685 124.886C78.5569 123.831 78.1646 122.826 77.5331 121.977H77.538Z" fill="url(#paint8_linear)"/>
<path opacity="0.2" d="M78.3969 125.521C78.3966 126.935 77.8613 128.296 76.8999 129.327C75.9384 130.357 74.6231 130.981 73.2213 131.07C73.1066 131.07 72.9773 131.07 72.8724 131.07C72.0251 131.07 71.1892 130.874 70.4294 130.496C69.6696 130.119 69.0062 129.571 68.4905 128.894C67.9748 128.217 67.6206 127.43 67.4553 126.594C67.2901 125.757 67.3182 124.894 67.5375 124.07C67.7567 123.246 68.1613 122.484 68.7199 121.843C69.2785 121.201 69.9761 120.698 70.7588 120.372C71.5416 120.045 72.3884 119.904 73.2339 119.96C74.0793 120.015 74.9008 120.266 75.6346 120.692C76.2754 121.068 76.8347 121.569 77.2793 122.166C78.0068 123.131 78.3994 124.31 78.3969 125.521Z" fill="black"/>
<path opacity="0.1" d="M71.5108 121.994C71.2255 122.116 70.9505 122.262 70.6885 122.429C70.5138 122.527 70.363 122.663 70.2468 122.827C70.1926 122.911 70.1638 123.01 70.1638 123.11C70.1638 123.211 70.1926 123.31 70.2468 123.394C70.3278 123.475 70.4251 123.537 70.5321 123.576C70.6391 123.615 70.7532 123.63 70.8666 123.62C71.1064 123.651 71.3501 123.627 71.5791 123.549C71.7343 123.472 71.8753 123.369 71.9964 123.244L72.4698 122.812C72.6357 122.66 72.8163 122.453 72.7431 122.242C72.7057 122.165 72.6489 122.099 72.5782 122.05C72.5076 122.002 72.4256 121.973 72.3404 121.967C71.932 121.886 71.5084 121.962 71.1521 122.178" fill="black"/>
<g opacity="0.1">
<path opacity="0.1" d="M69.527 128.007C69.6873 128.007 69.8173 127.876 69.8173 127.715C69.8173 127.553 69.6873 127.423 69.527 127.423C69.3666 127.423 69.2366 127.553 69.2366 127.715C69.2366 127.876 69.3666 128.007 69.527 128.007Z" fill="black"/>
</g>
<g opacity="0.1">
<path opacity="0.1" d="M75.4394 126.936C76.0284 126.936 76.5058 126.456 76.5058 125.863C76.5058 125.27 76.0284 124.789 75.4394 124.789C74.8505 124.789 74.3731 125.27 74.3731 125.863C74.3731 126.456 74.8505 126.936 75.4394 126.936Z" fill="black"/>
</g>
<g opacity="0.1">
<path opacity="0.1" d="M77.2817 122.171C77.2795 122.454 77.1964 122.731 77.0422 122.967C76.888 123.204 76.6693 123.391 76.4122 123.506C76.1552 123.621 75.8707 123.659 75.5928 123.616C75.3149 123.572 75.0553 123.449 74.845 123.261C74.6348 123.073 74.4829 122.828 74.4074 122.555C74.3319 122.282 74.336 121.993 74.4193 121.723C74.5026 121.453 74.6615 121.212 74.877 121.03C75.0926 120.848 75.3556 120.733 75.6347 120.697C76.2763 121.072 76.8365 121.573 77.2817 122.171Z" fill="black"/>
</g>
<g opacity="0.1">
<path opacity="0.1" d="M77.3891 128.722C76.9138 129.403 76.2924 129.968 75.571 130.374C74.8495 130.781 74.0465 131.019 73.2213 131.07C73.2213 130.994 73.2213 130.916 73.2213 130.825C73.2218 130.337 73.3568 129.858 73.6114 129.443C73.8659 129.028 74.2301 128.692 74.6632 128.472C75.0963 128.253 75.5814 128.159 76.0644 128.201C76.5474 128.243 77.0094 128.419 77.3988 128.71L77.3891 128.722Z" fill="black"/>
</g>
<path d="M233.009 105.64C233.257 105.64 233.458 105.437 233.458 105.188C233.458 104.938 233.257 104.736 233.009 104.736C232.761 104.736 232.56 104.938 232.56 105.188C232.56 105.437 232.761 105.64 233.009 105.64Z" fill="white"/>
</g>
<defs>
<linearGradient id="paint0_linear" x1="67.7042" y1="171.234" x2="67.7042" y2="164.457" gradientUnits="userSpaceOnUse">
<stop stop-color="#808080" stop-opacity="0.25"/>
<stop offset="0.54" stop-color="#808080" stop-opacity="0.12"/>
<stop offset="1" stop-color="#808080" stop-opacity="0.1"/>
</linearGradient>
<linearGradient id="paint1_linear" x1="4385.9" y1="3343.44" x2="4385.9" y2="3213.1" gradientUnits="userSpaceOnUse">
<stop stop-color="#808080" stop-opacity="0.25"/>
<stop offset="0.54" stop-color="#808080" stop-opacity="0.12"/>
<stop offset="1" stop-color="#808080" stop-opacity="0.1"/>
</linearGradient>
<linearGradient id="paint2_linear" x1="39620.3" y1="115378" x2="39620.3" y2="6997.78" gradientUnits="userSpaceOnUse">
<stop stop-color="#808080" stop-opacity="0.25"/>
<stop offset="0.54" stop-color="#808080" stop-opacity="0.12"/>
<stop offset="1" stop-color="#808080" stop-opacity="0.1"/>
</linearGradient>
<linearGradient id="paint3_linear" x1="103.594" y1="143.757" x2="103.594" y2="159.576" gradientUnits="userSpaceOnUse">
<stop stop-color="#E0E0E0"/>
<stop offset="0.31" stop-color="#FCCC63"/>
<stop offset="0.77" stop-color="#F55F44"/>
</linearGradient>
<linearGradient id="paint4_linear" x1="3210.6" y1="10080.2" x2="3210.6" y2="11098.9" gradientUnits="userSpaceOnUse">
<stop stop-color="#E0E0E0"/>
<stop offset="0.31" stop-color="#FCCC63"/>
<stop offset="0.77" stop-color="#F55F44"/>
</linearGradient>
<linearGradient id="paint5_linear" x1="3501.96" y1="10080.2" x2="3501.96" y2="11098.9" gradientUnits="userSpaceOnUse">
<stop stop-color="#E0E0E0"/>
<stop offset="0.31" stop-color="#FCCC63"/>
<stop offset="0.77" stop-color="#F55F44"/>
</linearGradient>
<linearGradient id="paint6_linear" x1="3972.14" y1="10080.2" x2="3972.14" y2="11098.9" gradientUnits="userSpaceOnUse">
<stop stop-color="#E0E0E0"/>
<stop offset="0.31" stop-color="#FCCC63"/>
<stop offset="0.77" stop-color="#F55F44"/>
</linearGradient>
<linearGradient id="paint7_linear" x1="13000.9" y1="6974.9" x2="13000.9" y2="5816.93" gradientUnits="userSpaceOnUse">
<stop stop-color="#808080" stop-opacity="0.25"/>
<stop offset="0.54" stop-color="#808080" stop-opacity="0.12"/>
<stop offset="1" stop-color="#808080" stop-opacity="0.1"/>
</linearGradient>
<linearGradient id="paint8_linear" x1="3948.73" y1="6932.7" x2="3948.73" y2="6367.83" gradientUnits="userSpaceOnUse">
<stop stop-color="#808080" stop-opacity="0.25"/>
<stop offset="0.54" stop-color="#808080" stop-opacity="0.12"/>
<stop offset="1" stop-color="#808080" stop-opacity="0.1"/>
</linearGradient>
<clipPath id="clip0">
<rect width="277" height="200" fill="white"/>
</clipPath>
</defs>
</svg>
