<svg width="276" height="178" viewBox="0 0 276 178" fill="none" xmlns="http://www.w3.org/2000/svg">
<path d="M120.468 134.989C106.738 131.282 95.0292 122.236 87.9186 109.842C80.808 97.4482 78.8777 82.7213 82.5523 68.9012C86.2269 55.0811 95.2054 43.2999 107.513 36.1493C119.82 28.9986 134.448 27.0644 148.178 30.772L120.468 134.989Z" fill="#638595"/>
<path d="M144.801 43.6604C158.532 47.3681 170.241 56.4139 177.351 68.808C184.462 81.202 186.393 95.929 182.718 109.749C179.043 123.569 170.065 135.351 157.757 142.501C145.45 149.652 130.822 151.586 117.091 147.878L144.801 43.6604Z" fill="#C9EBF0"/>
<path d="M117.927 76.4057C127.165 76.4057 134.655 68.8875 134.655 59.6133C134.655 50.339 127.165 42.8208 117.927 42.8208C108.689 42.8208 101.2 50.339 101.2 59.6133C101.2 68.8875 108.689 76.4057 117.927 76.4057Z" fill="#C9EBF0"/>
<path d="M148.036 133.5C157.275 133.5 164.764 125.982 164.764 116.707C164.764 107.433 157.275 99.915 148.036 99.915C138.798 99.915 131.309 107.433 131.309 116.707C131.309 125.982 138.798 133.5 148.036 133.5Z" fill="#638595"/>
<rect y="151.132" width="26.7636" height="26.8679" fill="#C9EBF0"/>
<rect x="249.236" width="26.7636" height="26.8679" fill="#638595"/>
</svg>
