<svg width="329" height="232" viewBox="0 0 329 232" fill="none" xmlns="http://www.w3.org/2000/svg">
<g clip-path="url(#clip0)">
<path d="M192.632 198.986H129.882V220.996H136.854V232H185.659V220.996H192.632V198.986Z" fill="url(#paint0_linear)"/>
<path d="M163.366 44.315V119.699C170.878 121.947 174.168 124.246 176.017 129.145C177.635 133.546 177.91 138.326 176.807 142.883C175.622 147.944 173.444 150.644 167.511 152.213C164.153 153.121 160.63 153.245 157.216 152.575C149.019 150.916 144.71 145.345 144.71 136.104C144.71 127.261 147.754 122.569 156.125 119.778V105.621L155.763 43.9498L94.2303 135.24C94.2303 135.24 123.681 159.798 134.455 207.2H184.514C184.514 207.2 199.586 152.17 224.739 138.624L163.366 44.315Z" fill="url(#paint1_linear)"/>
<path d="M164.475 47.9913V117.945C169.256 118.753 173.577 121.273 176.63 125.032C179.682 128.79 181.257 133.53 181.058 138.364C180.859 143.197 178.901 147.793 175.55 151.289C172.199 154.786 167.685 156.944 162.854 157.359C158.022 157.774 153.205 156.418 149.304 153.544C145.403 150.67 142.686 146.477 141.662 141.748C140.638 137.02 141.377 132.081 143.74 127.857C146.104 123.633 149.93 120.414 154.502 118.802V47.9913L97.9701 134.231C97.9701 134.231 127.892 160.767 137.868 207.203H181.101C181.101 207.203 197.723 150.807 220.999 137.55L164.475 47.9913Z" fill="#FBFBFB"/>
<path d="M154.498 11.5071H21.5074V18.1409H154.498V11.5071Z" fill="#FBFBFB"/>
<path d="M304.115 11.5071H171.124V18.1409H304.115V11.5071Z" fill="#FBFBFB"/>
<path d="M184.424 213.834H137.876V230.417H184.424V213.834Z" fill="#638595"/>
<path d="M175.335 0.412109H149.994V25.693H175.335V0.412109Z" fill="url(#paint2_linear)"/>
<path d="M174.447 1.55444H151.175V24.7711H174.447V1.55444Z" fill="#638595"/>
<path d="M14.8577 29.6444C23.0634 29.6444 29.7154 23.0083 29.7154 14.8222C29.7154 6.63613 23.0634 0 14.8577 0C6.65201 0 0 6.63613 0 14.8222C0 23.0083 6.65201 29.6444 14.8577 29.6444Z" fill="url(#paint3_linear)"/>
<path d="M314.139 29.6444C322.344 29.6444 328.996 23.0083 328.996 14.8222C328.996 6.63613 322.344 0 314.139 0C305.933 0 299.281 6.63613 299.281 14.8222C299.281 23.0083 305.933 29.6444 314.139 29.6444Z" fill="url(#paint4_linear)"/>
<path d="M14.8576 28.0898C22.2027 28.0898 28.157 22.1497 28.157 14.8221C28.157 7.49458 22.2027 1.55444 14.8576 1.55444C7.51252 1.55444 1.55816 7.49458 1.55816 14.8221C1.55816 22.1497 7.51252 28.0898 14.8576 28.0898Z" fill="#638595"/>
<path d="M314.092 28.0898C321.437 28.0898 327.391 22.1497 327.391 14.8221C327.391 7.49458 321.437 1.55444 314.092 1.55444C306.746 1.55444 300.792 7.49458 300.792 14.8221C300.792 22.1497 306.746 28.0898 314.092 28.0898Z" fill="#638595"/>
<path d="M191.074 200.566H131.226V220.467H191.074V200.566Z" fill="#315363"/>
</g>
<defs>
<linearGradient id="paint0_linear" x1="161.257" y1="232" x2="161.257" y2="198.986" gradientUnits="userSpaceOnUse">
<stop stop-color="#808080" stop-opacity="0.25"/>
<stop offset="0.54" stop-color="#808080" stop-opacity="0.12"/>
<stop offset="1" stop-color="#808080" stop-opacity="0.1"/>
</linearGradient>
<linearGradient id="paint1_linear" x1="76594.4" y1="114690" x2="76594.4" y2="40972.4" gradientUnits="userSpaceOnUse">
<stop stop-color="#808080" stop-opacity="0.25"/>
<stop offset="0.54" stop-color="#808080" stop-opacity="0.12"/>
<stop offset="1" stop-color="#808080" stop-opacity="0.1"/>
</linearGradient>
<linearGradient id="paint2_linear" x1="11525.3" y1="1797.38" x2="11525.3" y2="29.2324" gradientUnits="userSpaceOnUse">
<stop stop-color="#808080" stop-opacity="0.25"/>
<stop offset="0.54" stop-color="#808080" stop-opacity="0.12"/>
<stop offset="1" stop-color="#808080" stop-opacity="0.1"/>
</linearGradient>
<linearGradient id="paint3_linear" x1="1218.33" y1="2431.14" x2="1218.33" y2="0" gradientUnits="userSpaceOnUse">
<stop stop-color="#808080" stop-opacity="0.25"/>
<stop offset="0.54" stop-color="#808080" stop-opacity="0.12"/>
<stop offset="1" stop-color="#808080" stop-opacity="0.1"/>
</linearGradient>
<linearGradient id="paint4_linear" x1="26058.7" y1="2431.14" x2="26058.7" y2="0" gradientUnits="userSpaceOnUse">
<stop stop-color="#808080" stop-opacity="0.25"/>
<stop offset="0.54" stop-color="#808080" stop-opacity="0.12"/>
<stop offset="1" stop-color="#808080" stop-opacity="0.1"/>
</linearGradient>
<clipPath id="clip0">
<rect width="329" height="232" fill="white"/>
</clipPath>
</defs>
</svg>
