<svg width="277" height="170" viewBox="0 0 277 170" fill="none" xmlns="http://www.w3.org/2000/svg">
<g clip-path="url(#clip0)">
<path d="M141.313 169.194H221.507C224.672 169.194 224.678 164.242 221.507 164.242H141.313C138.147 164.242 138.141 169.194 141.313 169.194Z" fill="#E6E6E6"/>
<path d="M119.661 61.5831H39.7367C38.8924 61.5841 38.083 61.9221 37.486 62.523C36.889 63.1239 36.5532 63.9386 36.5522 64.7884V80.7691C40.539 80.8636 43.1268 84.1747 43.7538 88.1943V102.682H44.0566C44.1047 102.682 44.1508 102.701 44.1849 102.735C44.2189 102.77 44.2381 102.816 44.2382 102.865V110.573C44.2381 110.622 44.2189 110.668 44.1849 110.703C44.1508 110.737 44.1047 110.756 44.0566 110.756H43.7538V157.351C43.7538 158.374 43.7436 160.242 43.7436 160.242H119.661C120.506 160.241 121.315 159.903 121.912 159.302C122.509 158.701 122.845 157.887 122.846 157.037V64.7884C122.845 63.9386 122.509 63.1239 121.912 62.523C121.315 61.9221 120.506 61.5841 119.661 61.5831Z" fill="#638595"/>
<path d="M268.158 9.00043V96.4452H128.374V57.9451C128.372 56.197 127.681 54.5209 126.453 53.2847C125.225 52.0486 123.56 51.3534 121.823 51.3517H95.6071V9.00043H268.158Z" fill="#638595"/>
<path d="M276.789 108.773H128.53V108.163H276.184V5.17966C276.182 3.96797 275.703 2.80629 274.852 1.94949C274.001 1.0927 272.847 0.610743 271.643 0.60937H90.3125C89.1086 0.610744 87.9544 1.0927 87.1031 1.94949C86.2519 2.80629 85.773 3.96797 85.7716 5.17966V50.9569H85.1662V5.17966C85.1677 3.80641 85.7104 2.48984 86.6752 1.5188C87.64 0.547757 88.9481 0.00154552 90.3125 0H271.643C273.007 0.00154334 274.315 0.547751 275.28 1.51879C276.245 2.48983 276.788 3.80641 276.789 5.17966V108.773Z" fill="#3F3D56"/>
<path d="M262.741 127.359H128.53V126.749H262.741C266.305 126.745 269.722 125.318 272.242 122.782C274.762 120.246 276.179 116.807 276.183 113.22V108.773H128.53V108.163H276.789V113.22C276.785 116.968 275.303 120.562 272.67 123.213C270.036 125.863 266.465 127.354 262.741 127.359Z" fill="#3F3D56"/>
<path d="M222.91 157.218C215.428 149.987 210.506 140.552 208.924 127.359H153.782C153.221 139.702 148.33 148.96 139.508 157.185L138.576 157.218C147.678 148.916 152.692 139.59 153.189 127.042L153.201 126.749H209.462L209.493 127.019C211.047 140.436 216.072 149.931 223.738 157.169L222.91 157.218Z" fill="#3F3D56"/>
<path d="M121.676 169.823H36.7334V169.214H121.676C123.413 169.212 125.078 168.517 126.306 167.281C127.534 166.045 128.225 164.369 128.227 162.621V58.085C128.225 56.337 127.534 54.6611 126.306 53.4251C125.078 52.1891 123.413 51.4938 121.676 51.4918H36.7334C34.9966 51.4938 33.3316 52.1891 32.1036 53.4251C30.8755 54.6611 30.1847 56.337 30.1828 58.085V80.6445H29.5773V58.085C29.5795 56.1754 30.3341 54.3447 31.6757 52.9944C33.0172 51.6442 34.8361 50.8846 36.7334 50.8824H121.676C123.574 50.8846 125.393 51.6441 126.734 52.9944C128.076 54.3447 128.83 56.1754 128.832 58.085V162.621C128.83 164.53 128.076 166.361 126.734 167.711C125.393 169.062 123.574 169.821 121.676 169.823Z" fill="#3F3D56"/>
<path d="M79.2049 58.5919C78.7989 58.5919 78.402 58.4707 78.0644 58.2437C77.7268 58.0167 77.4637 57.694 77.3084 57.3165C77.153 56.939 77.1123 56.5235 77.1915 56.1228C77.2707 55.722 77.4662 55.3538 77.7533 55.0649C78.0404 54.7759 78.4062 54.5792 78.8044 54.4994C79.2026 54.4197 79.6153 54.4606 79.9904 54.617C80.3655 54.7733 80.6861 55.0381 80.9116 55.3779C81.1372 55.7177 81.2576 56.1171 81.2576 56.5257C81.257 57.0735 81.0405 57.5987 80.6557 57.986C80.2709 58.3734 79.7491 58.5913 79.2049 58.5919ZM79.2049 54.9373C78.8927 54.9373 78.5876 55.0305 78.328 55.205C78.0685 55.3796 77.8662 55.6277 77.7467 55.9179C77.6273 56.2082 77.596 56.5276 77.6569 56.8357C77.7178 57.1439 77.8681 57.4269 78.0889 57.6491C78.3096 57.8712 78.5908 58.0225 78.897 58.0838C79.2031 58.1451 79.5205 58.1136 79.8089 57.9934C80.0973 57.8732 80.3438 57.6695 80.5172 57.4083C80.6906 57.1471 80.7831 56.8399 80.7831 56.5258C80.7827 56.1046 80.6162 55.7008 80.3203 55.4031C80.0244 55.1053 79.6233 54.9378 79.2049 54.9373Z" fill="#3F3D56"/>
<path d="M79.2049 167.488C78.6868 167.488 78.1804 167.333 77.7497 167.044C77.3189 166.754 76.9832 166.342 76.785 165.86C76.5867 165.379 76.5348 164.849 76.6359 164.337C76.737 163.826 76.9864 163.356 77.3527 162.987C77.719 162.619 78.1858 162.368 78.6938 162.266C79.2019 162.164 79.7286 162.216 80.2072 162.416C80.6858 162.615 81.0949 162.953 81.3827 163.387C81.6706 163.82 81.8242 164.33 81.8242 164.851C81.8234 165.55 81.5472 166.22 81.0562 166.715C80.5651 167.209 79.8993 167.487 79.2049 167.488ZM79.2049 162.825C78.8066 162.825 78.4172 162.943 78.086 163.166C77.7548 163.389 77.4967 163.705 77.3443 164.076C77.1919 164.446 77.152 164.854 77.2297 165.247C77.3074 165.64 77.4992 166.001 77.7809 166.285C78.0625 166.568 78.4214 166.761 78.812 166.84C79.2027 166.918 79.6076 166.878 79.9756 166.724C80.3436 166.571 80.6581 166.311 80.8794 165.978C81.1007 165.644 81.2188 165.252 81.2188 164.851C81.2181 164.314 81.0058 163.799 80.6282 163.419C80.2507 163.039 79.7388 162.825 79.2049 162.825Z" fill="#3F3D56"/>
<path d="M35.8804 170H7.76194C5.64511 169.998 3.61567 169.15 2.11885 167.644C0.622036 166.137 -0.21992 164.094 -0.22229 161.964V88.6805C-0.219891 86.5499 0.622068 84.5074 2.11887 83.0009C3.61568 81.4943 5.64509 80.6469 7.76189 80.6445H35.8804C37.9972 80.6469 40.0266 81.4943 41.5234 83.0009C43.0202 84.5074 43.8622 86.5499 43.8646 88.6805V101.795C44.008 101.855 44.1304 101.957 44.2166 102.087C44.3028 102.217 44.3489 102.37 44.3491 102.526L44.349 111.06C44.3489 111.216 44.3028 111.369 44.2166 111.499C44.1304 111.629 44.008 111.731 43.8646 111.791V161.964C43.8622 164.095 43.0202 166.137 41.5234 167.644C40.0266 169.15 37.9972 169.998 35.8804 170ZM7.76188 81.2539C5.80561 81.2561 3.9301 82.0393 2.5468 83.4316C1.1635 84.8238 0.38538 86.7115 0.383146 88.6805V161.964C0.385341 163.933 1.16345 165.821 2.54676 167.213C3.93007 168.605 5.80561 169.388 7.76192 169.391H35.8804C37.8366 169.388 39.7122 168.605 41.0955 167.213C42.4788 165.821 43.2569 163.933 43.2591 161.964V111.242H43.5619C43.61 111.242 43.6562 111.223 43.6903 111.189C43.7244 111.155 43.7435 111.108 43.7436 111.06L43.7436 102.526C43.7436 102.478 43.7244 102.431 43.6903 102.397C43.6562 102.363 43.6101 102.343 43.5619 102.343H43.2591V88.6805C43.2569 86.7115 42.4788 84.8238 41.0955 83.4316C39.7122 82.0393 37.8367 81.2561 35.8804 81.2539H7.76188Z" fill="#3F3D56"/>
<path d="M36.1903 82.9606H32.5199C32.6887 83.3772 32.7532 83.829 32.7076 84.2765C32.662 84.724 32.5077 85.1533 32.2584 85.5267C32.0091 85.9 31.6725 86.2059 31.278 86.4174C30.8836 86.629 30.4436 86.7396 29.9966 86.7397H13.8879C13.441 86.7396 13.0009 86.629 12.6065 86.4174C12.2121 86.2059 11.8754 85.9 11.6261 85.5267C11.3768 85.1533 11.2226 84.724 11.177 84.2765C11.1314 83.829 11.1958 83.3771 11.3646 82.9606H7.93646C6.41506 82.9606 4.95598 83.5689 3.88019 84.6517C2.8044 85.7345 2.20002 87.203 2.20001 88.7343V161.91C2.20001 163.441 2.80439 164.91 3.88018 165.993C4.95597 167.076 6.41506 167.684 7.93646 167.684H36.1904C37.7118 167.684 39.1708 167.076 40.2466 165.993C41.3224 164.91 41.9268 163.441 41.9268 161.91V88.7343C41.9268 87.203 41.3224 85.7345 40.2466 84.6517C39.1708 83.5689 37.7117 82.9606 36.1903 82.9606Z" fill="#638595"/>
<path d="M339.225 169.881H-37.3069C-37.3544 169.881 -37.4014 169.872 -37.4452 169.853C-37.4891 169.835 -37.529 169.809 -37.5626 169.775C-37.5962 169.741 -37.6228 169.701 -37.641 169.657C-37.6592 169.613 -37.6686 169.566 -37.6686 169.518C-37.6686 169.47 -37.6592 169.423 -37.641 169.379C-37.6228 169.335 -37.5962 169.295 -37.5626 169.261C-37.529 169.227 -37.4891 169.201 -37.4452 169.182C-37.4014 169.164 -37.3544 169.155 -37.3069 169.155H339.225C339.273 169.155 339.32 169.164 339.364 169.182C339.408 169.201 339.447 169.227 339.481 169.261C339.515 169.295 339.541 169.335 339.559 169.379C339.578 169.423 339.587 169.47 339.587 169.518C339.587 169.566 339.578 169.613 339.559 169.657C339.541 169.701 339.515 169.741 339.481 169.775C339.447 169.809 339.408 169.835 339.364 169.853C339.32 169.872 339.273 169.881 339.225 169.881Z" fill="#3F3D56"/>
<path d="M223.097 169.71H139.243C138.407 169.711 137.58 169.546 136.808 169.224C136.036 168.903 135.335 168.432 134.744 167.838C134.153 167.243 133.685 166.538 133.365 165.761C133.045 164.985 132.88 164.152 132.88 163.312C132.88 162.471 133.045 161.638 133.365 160.862C133.685 160.085 134.153 159.38 134.744 158.785C135.335 158.191 136.036 157.72 136.808 157.399C137.58 157.077 138.407 156.912 139.243 156.913H223.097C224.782 156.914 226.397 157.589 227.589 158.789C228.78 159.989 229.449 161.615 229.449 163.312C229.449 165.008 228.78 166.634 227.589 167.834C226.397 169.034 224.782 169.709 223.097 169.71ZM139.243 157.522C137.717 157.522 136.254 158.132 135.176 159.218C134.097 160.304 133.491 161.776 133.491 163.312C133.491 164.847 134.097 166.319 135.176 167.405C136.254 168.491 137.717 169.101 139.243 169.101H223.097C224.622 169.101 226.085 168.491 227.164 167.405C228.242 166.319 228.848 164.847 228.848 163.312C228.848 161.776 228.242 160.304 227.164 159.218C226.085 158.132 224.622 157.522 223.097 157.522H139.243Z" fill="#3F3D56"/>
</g>
<defs>
<clipPath id="clip0">
<rect width="277" height="170" fill="white"/>
</clipPath>
</defs>
</svg>
