<svg width="397" height="327" viewBox="0 0 397 327" fill="none" xmlns="http://www.w3.org/2000/svg">
<g clip-path="url(#clip0)">
<path d="M362.956 297.836C358.849 311.561 365.223 325.593 365.223 325.593C365.223 325.593 378.254 317.373 382.361 303.648C386.468 289.923 380.094 275.891 380.094 275.891C380.094 275.891 367.063 284.111 362.956 297.836Z" fill="#C9EBF0"/>
<path d="M369.191 298.207C372.647 312.11 365.621 325.827 365.621 325.827C365.621 325.827 352.99 317.002 349.534 303.099C346.078 289.196 353.104 275.479 353.104 275.479C353.104 275.479 365.735 284.304 369.191 298.207Z" fill="#C9EBF0"/>
<path d="M31.5758 298.383C27.4691 312.108 33.8426 326.14 33.8426 326.14C33.8426 326.14 46.8743 317.92 50.981 304.195C55.0877 290.47 48.7142 276.438 48.7142 276.438C48.7142 276.438 35.6824 284.658 31.5758 298.383Z" fill="#C9EBF0"/>
<path d="M37.811 298.755C41.2673 312.658 34.2406 326.374 34.2406 326.374C34.2406 326.374 21.6102 317.549 18.1538 303.646C14.6975 289.743 21.7242 276.027 21.7242 276.027C21.7242 276.027 34.3547 284.851 37.811 298.755Z" fill="#C9EBF0"/>
<path d="M183.737 169.56C199.9 169.56 213.003 156.451 213.003 140.28C213.003 124.108 199.9 110.999 183.737 110.999C167.573 110.999 154.471 124.108 154.471 140.28C154.471 156.451 167.573 169.56 183.737 169.56Z" fill="#C9EBF0"/>
<path d="M182.406 325.937H174.335C173.393 325.936 172.49 325.561 171.823 324.894C171.157 324.228 170.782 323.324 170.781 322.381V255.08C170.782 254.137 171.157 253.233 171.823 252.566C172.49 251.9 173.393 251.525 174.335 251.523H182.406C183.349 251.525 184.252 251.9 184.918 252.566C185.585 253.233 185.96 254.137 185.961 255.08V322.381C185.96 323.324 185.585 324.228 184.918 324.894C184.252 325.561 183.349 325.936 182.406 325.937Z" fill="#C9EBF0"/>
<path d="M205.131 216.908L201.432 209.731C201.001 208.893 200.92 207.917 201.207 207.019C201.494 206.121 202.125 205.374 202.962 204.941L262.751 174.1C263.59 173.668 264.564 173.588 265.462 173.875C266.36 174.162 267.107 174.793 267.54 175.631L271.238 182.808C271.669 183.646 271.75 184.622 271.463 185.52C271.176 186.418 270.545 187.165 269.708 187.598L209.919 218.439C209.08 218.87 208.106 218.951 207.208 218.664C206.31 218.377 205.563 217.746 205.131 216.908Z" fill="#C9EBF0"/>
<path d="M225.809 289.84L219.243 294.536C218.476 295.084 217.523 295.305 216.593 295.15C215.664 294.995 214.833 294.478 214.284 293.712L175.16 238.965C174.612 238.198 174.392 237.244 174.546 236.314C174.701 235.384 175.218 234.554 175.984 234.004L182.549 229.308C183.316 228.76 184.269 228.539 185.199 228.694C186.128 228.848 186.959 229.366 187.508 230.132L226.633 284.879C227.18 285.646 227.4 286.599 227.246 287.53C227.091 288.46 226.575 289.29 225.809 289.84Z" fill="#C9EBF0"/>
<path d="M204.611 325.465L197.386 321.866C195.632 320.992 194.646 319.394 195.188 318.304L213.81 280.882C214.352 279.792 216.221 279.616 217.975 280.49L225.201 284.089C226.955 284.963 227.941 286.561 227.399 287.651L208.777 325.073C208.235 326.163 206.366 326.339 204.611 325.465Z" fill="#C9EBF0"/>
<path d="M204.421 151.108L204.391 150.014C206.425 149.957 208.219 149.829 209.567 148.844C209.949 148.549 210.263 148.175 210.488 147.747C210.712 147.32 210.842 146.849 210.869 146.367C210.893 146.072 210.848 145.776 210.739 145.501C210.629 145.227 210.458 144.981 210.239 144.783C209.344 144.027 207.904 144.271 206.855 144.753L205.95 145.168L207.685 132.481L208.769 132.629L207.293 143.422C208.719 143.002 210.04 143.182 210.945 143.947C211.292 144.251 211.565 144.631 211.741 145.057C211.918 145.483 211.993 145.945 211.962 146.405C211.93 147.053 211.757 147.686 211.454 148.26C211.152 148.834 210.728 149.335 210.212 149.728C208.48 150.994 206.229 151.057 204.421 151.108Z" fill="#2F2E41"/>
<path d="M201.425 133.56H195.535V134.654H201.425V133.56Z" fill="#2F2E41"/>
<path d="M230.307 240.179C230.307 264.049 207.685 262.063 183.826 262.063C159.967 262.063 143.907 264.049 143.907 240.179C143.907 216.309 159.967 175.621 183.826 175.621C207.685 175.621 230.307 216.309 230.307 240.179Z" fill="#638595"/>
<path d="M201.036 109.274C199.943 102.754 195.815 97.1502 190.505 93.367C185.298 89.7238 179.074 87.82 172.722 87.9277C160.422 88.0631 148.395 94.9556 141.801 105.298C134.495 116.756 134.351 131.719 139.29 144.108C140.552 147.299 142.153 150.346 144.065 153.196C146.185 156.339 148.753 159.112 151.251 161.95C155.906 167.241 161.244 174.598 158.124 181.979C156.972 184.706 154.541 187.184 151.448 187.38C148.837 187.544 145.941 186.295 144.783 183.839C143.486 181.088 145.282 177.832 147.936 176.706C150.718 175.525 153.611 177.267 154.639 179.947C155.15 181.181 155.167 182.564 154.687 183.81C154.585 183.999 154.558 184.221 154.613 184.429C154.668 184.638 154.799 184.818 154.982 184.933C155.17 185.041 155.393 185.071 155.603 185.016C155.813 184.961 155.993 184.825 156.104 184.638C156.656 183.257 156.776 181.741 156.448 180.29C156.119 178.84 155.358 177.523 154.265 176.515C153.156 175.452 151.706 174.816 150.173 174.721C148.64 174.627 147.123 175.078 145.892 175.997C143.291 177.897 141.916 181.299 143.234 184.369C144.375 187.027 147.136 188.632 149.924 188.971C151.462 189.122 153.013 188.873 154.426 188.247C155.84 187.621 157.067 186.64 157.989 185.398C160.045 182.704 160.977 179.317 160.588 175.949C159.675 167.549 152.967 161.806 147.932 155.659C143.454 150.15 140.298 143.688 138.708 136.768C137.08 129.967 137.14 122.87 138.884 116.098C140.576 109.677 144.053 103.867 148.911 99.3426C153.574 95.019 159.269 91.966 165.45 90.4764C171.561 88.9544 177.991 89.3459 183.873 91.5981C190.037 94.0448 195.508 98.8861 198.115 105.051C198.742 106.546 199.191 108.11 199.454 109.71C199.628 110.749 201.209 110.309 201.036 109.274V109.274Z" fill="#315363"/>
<path d="M201 109.521C203.739 106.881 208.204 106.5 211.504 108.288C214.918 110.138 216.287 114.122 215.412 117.808C214.962 119.867 213.773 121.69 212.07 122.93C211.209 123.53 212.029 124.953 212.898 124.347C216.59 121.776 218.145 116.82 216.885 112.532C215.569 108.056 211.199 105.384 206.635 105.562C204.104 105.629 201.685 106.625 199.84 108.36C199.078 109.094 200.239 110.254 201 109.521Z" fill="#315363"/>
<path d="M177.041 208.278L181.57 201.594C182.099 200.814 182.916 200.276 183.842 200.099C184.767 199.921 185.725 200.118 186.506 200.646L242.186 238.41C242.965 238.94 243.503 239.758 243.68 240.684C243.858 241.609 243.661 242.568 243.134 243.349L238.605 250.033C238.075 250.813 237.258 251.35 236.332 251.528C235.407 251.706 234.449 251.509 233.668 250.981L177.988 213.217C177.209 212.687 176.672 211.869 176.494 210.943C176.316 210.017 176.513 209.059 177.041 208.278Z" fill="#C9EBF0"/>
<path d="M281.783 173.752C281.932 171.821 281.392 169.899 280.257 168.329L265.952 158.116C265.68 157.922 265.373 157.783 265.048 157.708C264.723 157.633 264.387 157.623 264.058 157.678C263.729 157.733 263.414 157.852 263.131 158.029C262.849 158.206 262.603 158.436 262.41 158.708L260.353 161.592C260.345 161.584 260.346 161.572 260.337 161.565C260.295 161.536 260.244 161.524 260.194 161.532C260.144 161.541 260.099 161.569 260.07 161.61L259.227 162.792C259.212 162.812 259.202 162.836 259.196 162.86C259.19 162.885 259.19 162.91 259.194 162.935C259.198 162.96 259.207 162.983 259.22 163.005C259.234 163.026 259.251 163.044 259.271 163.059C259.28 163.066 259.292 163.061 259.301 163.066L258.393 164.34C258.387 164.333 258.381 164.327 258.375 164.321C258.352 164.305 258.327 164.293 258.3 164.287C258.273 164.281 258.245 164.28 258.217 164.285C258.19 164.289 258.163 164.299 258.14 164.314C258.116 164.329 258.096 164.348 258.08 164.37L256.47 166.627C256.454 166.65 256.442 166.675 256.436 166.703C256.43 166.73 256.429 166.758 256.434 166.785C256.438 166.812 256.448 166.839 256.463 166.862C256.478 166.886 256.497 166.906 256.519 166.922C256.527 166.927 256.535 166.93 256.543 166.933L255.89 167.849C255.885 167.845 255.883 167.84 255.878 167.836C255.834 167.805 255.78 167.793 255.727 167.801C255.675 167.81 255.628 167.84 255.596 167.883L253.958 170.181C253.927 170.225 253.914 170.279 253.923 170.331C253.932 170.384 253.961 170.431 254.005 170.462C254.01 170.466 254.016 170.467 254.021 170.47L238.617 192.069C238.467 194 239.008 195.922 240.142 197.492L254.448 207.706C254.72 207.899 255.026 208.038 255.351 208.113C255.676 208.188 256.013 208.198 256.342 208.143C256.671 208.088 256.986 207.969 257.268 207.792C257.551 207.615 257.796 207.385 257.99 207.113L274.568 183.869C274.585 183.894 274.606 183.917 274.629 183.936C274.666 183.961 274.707 183.98 274.75 183.989C274.794 183.999 274.839 184 274.883 183.992C274.927 183.985 274.969 183.968 275.007 183.944C275.045 183.92 275.077 183.889 275.103 183.853L277.948 179.864C277.974 179.828 277.993 179.787 278.003 179.744C278.013 179.7 278.015 179.655 278.008 179.611C278.001 179.567 277.985 179.525 277.962 179.487C277.939 179.448 277.908 179.415 277.872 179.389C277.846 179.373 277.818 179.361 277.789 179.352L281.783 173.752Z" fill="#3A3768"/>
<path d="M278.966 168.936L276.86 167.423L276.678 167.675C276.454 167.984 276.118 168.194 275.742 168.26C275.366 168.326 274.979 168.243 274.663 168.028L267.932 163.219C267.612 162.99 267.397 162.644 267.333 162.257C267.268 161.869 267.361 161.472 267.589 161.152L267.77 160.9L265.755 159.489C265.369 159.21 264.888 159.097 264.419 159.173C263.949 159.249 263.529 159.509 263.251 159.895L263.246 159.902L239.988 192.517C239.712 192.906 239.6 193.388 239.677 193.858C239.755 194.328 240.015 194.749 240.401 195.028L253.642 204.475C254.029 204.752 254.51 204.864 254.979 204.786C255.449 204.708 255.868 204.447 256.145 204.06L256.151 204.051L279.409 171.446C279.684 171.057 279.792 170.575 279.712 170.106C279.631 169.637 279.368 169.219 278.979 168.945L278.966 168.936Z" fill="url(#paint0_linear)"/>
<path d="M270.784 163.268L272.834 164.732C272.869 164.757 272.898 164.788 272.921 164.824C272.943 164.86 272.958 164.9 272.965 164.941C272.972 164.983 272.971 165.026 272.961 165.067C272.952 165.109 272.934 165.148 272.91 165.182C272.885 165.217 272.854 165.246 272.818 165.268C272.782 165.291 272.742 165.306 272.7 165.313C272.658 165.32 272.616 165.319 272.574 165.309C272.533 165.299 272.494 165.282 272.46 165.257L270.409 163.793C270.375 163.769 270.345 163.738 270.323 163.702C270.3 163.666 270.285 163.626 270.278 163.584C270.271 163.542 270.273 163.499 270.282 163.458C270.292 163.417 270.309 163.378 270.334 163.343C270.358 163.309 270.39 163.279 270.425 163.257C270.461 163.235 270.501 163.219 270.543 163.212C270.585 163.205 270.628 163.207 270.669 163.216C270.71 163.226 270.749 163.243 270.784 163.268Z" fill="#E6E8EC"/>
<path d="M273.544 166.062C273.745 166.062 273.907 165.9 273.907 165.699C273.907 165.499 273.745 165.336 273.544 165.336C273.344 165.336 273.182 165.499 273.182 165.699C273.182 165.9 273.344 166.062 273.544 166.062Z" fill="#E6E8EC"/>
<path d="M265.309 0C255.592 0 246.273 3.86197 239.402 10.7363C232.531 17.6106 228.671 26.9342 228.671 36.656C228.671 56.8989 267.059 131.579 267.059 131.579C267.059 131.579 301.946 56.9098 301.946 36.6615C301.947 31.8478 301 27.081 299.16 22.6334C297.319 18.1858 294.621 14.1445 291.219 10.7402C287.818 7.33583 283.779 4.63517 279.334 2.79237C274.89 0.949565 270.126 0.000718415 265.314 0H265.309ZM265.309 61.1007C261.513 61.1007 257.802 59.9744 254.645 57.8643C251.489 55.7542 249.029 52.7551 247.576 49.2461C246.123 45.7371 245.743 41.876 246.484 38.1509C247.224 34.4258 249.052 31.0041 251.737 28.3184C254.421 25.6328 257.841 23.8039 261.564 23.0629C265.287 22.3219 269.147 22.7022 272.654 24.1557C276.161 25.6091 279.159 28.0705 281.268 31.2285C283.377 34.3864 284.502 38.0992 284.502 41.8973C284.502 46.9903 282.48 51.8748 278.881 55.4761C275.281 59.0775 270.399 61.1007 265.309 61.1007Z" fill="#C9EBF0"/>
<path d="M397 325.906H0V327H397V325.906Z" fill="#3F3D56"/>
</g>
<defs>
<linearGradient id="paint0_linear" x1="259.696" y1="159.15" x2="231.98" y2="194.489" gradientUnits="userSpaceOnUse">
<stop stop-color="#C9EBF0"/>
<stop offset="1" stop-color="white"/>
</linearGradient>
<clipPath id="clip0">
<rect width="397" height="327" fill="white"/>
</clipPath>
</defs>
</svg>
